<svg id="Layer_1" data-name="Layer 1" xmlns="http://www.w3.org/2000/svg" viewBox="0 0 300 100"><defs><style>.cls-1,.cls-3{fill:#00141e;}.cls-2{fill:#05ccc2;}.cls-2,.cls-3{fill-rule:evenodd;}</style></defs><path class="cls-1" d="M113.12,59.13V40.28h6V71h-6v-6.7"/><path class="cls-1" d="M169.35,52.76v-9h5.92v9h9.29v4.88h-9.29v21a5,5,0,0,0,1.1,3.68,5.47,5.47,0,0,0,3.84,1.07h4.35v5h-5.33c-3.29,0-5.76-.75-7.41-2.27s-2.47-4-2.47-7.48V52.76Z"/><path class="cls-1" d="M202.08,53.8a13.81,13.81,0,0,1,7-1.69v6.11h-1.56q-9.94,0-9.95,10.79V88.38h-5.91V52.76h5.91v5.79A11.37,11.37,0,0,1,202.08,53.8Z"/><path class="cls-1" d="M248.26,72.78H219.79A11.19,11.19,0,0,0,231.36,84a11,11,0,0,0,6.4-1.78,9.47,9.47,0,0,0,3.61-4.78h6.37A15.28,15.28,0,0,1,242,85.75,17.25,17.25,0,0,1,231.36,89a18,18,0,0,1-9.07-2.28A16.12,16.12,0,0,1,216,80.23a20.05,20.05,0,0,1-2.28-9.72A20.43,20.43,0,0,1,216,60.82a15.64,15.64,0,0,1,6.21-6.4,18.54,18.54,0,0,1,9.2-2.24,17.91,17.91,0,0,1,9,2.21,15.28,15.28,0,0,1,6,6.08,17.91,17.91,0,0,1,2.11,8.74A34.51,34.51,0,0,1,248.26,72.78Zm-7.41-10.62a9.76,9.76,0,0,0-4.06-3.71,12.78,12.78,0,0,0-5.69-1.27A11,11,0,0,0,223.46,60,11.7,11.7,0,0,0,219.85,68h22.49A10.85,10.85,0,0,0,240.85,62.16Z"/><path class="cls-1" d="M288.56,72.78H260.09A11.19,11.19,0,0,0,271.66,84a11,11,0,0,0,6.4-1.78,9.47,9.47,0,0,0,3.61-4.78H288a15.34,15.34,0,0,1-5.72,8.35A17.25,17.25,0,0,1,271.66,89a18,18,0,0,1-9.07-2.28,16.06,16.06,0,0,1-6.27-6.46A20.05,20.05,0,0,1,254,70.51a20.43,20.43,0,0,1,2.21-9.69,15.64,15.64,0,0,1,6.21-6.4,18.54,18.54,0,0,1,9.2-2.24,17.91,17.91,0,0,1,9,2.21,15.28,15.28,0,0,1,6,6.08,17.91,17.91,0,0,1,2.11,8.74A34.51,34.51,0,0,1,288.56,72.78Zm-7.41-10.62a9.76,9.76,0,0,0-4.06-3.71,12.78,12.78,0,0,0-5.69-1.27A11,11,0,0,0,263.76,60,11.7,11.7,0,0,0,260.15,68h22.49A10.94,10.94,0,0,0,281.15,62.16Z"/><path class="cls-1" d="M155.56,52.76v4.46a18.38,18.38,0,0,1,0,26.71v4.45h6V52.76Z"/><path class="cls-1" d="M155.56,59.26v-2a18.33,18.33,0,0,0-12.64-5h-.32a15.69,15.69,0,0,1,7.83,2A13.58,13.58,0,0,1,155.56,59.26Z"/><path class="cls-1" d="M125.4,70.44a20,20,0,0,1,2.21-9.58,17,17,0,0,1,2.2-3.19,18.38,18.38,0,0,0,1.05,26.79,16.87,16.87,0,0,1-3.25-4.4A20.46,20.46,0,0,1,125.4,70.44Z"/><path class="cls-1" d="M150.33,86.92a15.55,15.55,0,0,1-7.77,2h.36a18.33,18.33,0,0,0,12.64-5V81.75A13.89,13.89,0,0,1,150.33,86.92Z"/><path class="cls-1" d="M161.31,70.57a18.32,18.32,0,0,0-5.75-13.35v2a13.58,13.58,0,0,0-5.13-5.07,15.69,15.69,0,0,0-7.83-2,18.3,18.3,0,0,0-12.79,5.48,17,17,0,0,0-2.2,3.19,20,20,0,0,0-2.21,9.58,20.46,20.46,0,0,0,2.21,9.62,16.87,16.87,0,0,0,3.25,4.4,18.33,18.33,0,0,0,11.7,4.5,15.55,15.55,0,0,0,7.77-2,13.89,13.89,0,0,0,5.23-5.17v2.18A18.33,18.33,0,0,0,161.31,70.57Zm-7.37,7a11.46,11.46,0,0,1-4.39,4.62,12,12,0,0,1-6.08,1.59,11.77,11.77,0,0,1-6-1.59,11.46,11.46,0,0,1-4.36-4.62,14.85,14.85,0,0,1-1.62-7.12,14.55,14.55,0,0,1,1.62-7,11.33,11.33,0,0,1,4.36-4.55,12.41,12.41,0,0,1,12.12,0,11.54,11.54,0,0,1,4.39,4.58,14.5,14.5,0,0,1,1.62,7A14.68,14.68,0,0,1,153.94,77.56Z"/><path class="cls-1" d="M113.12,57v2.13a13.88,13.88,0,0,0-5.46-5,16.06,16.06,0,0,0-7.37-1.91A18.37,18.37,0,0,0,85.69,60c-.18.3-.35.6-.52.91A20,20,0,0,0,83,70.44a20.46,20.46,0,0,0,2.21,9.62,17.54,17.54,0,0,0,1.56,2.47A18.39,18.39,0,0,0,100.26,89a15.31,15.31,0,0,0,7.66-2,13.8,13.8,0,0,0,5.2-5.23v2.46a18.4,18.4,0,0,0,0-27.15ZM111.5,77.56a11.46,11.46,0,0,1-4.39,4.62A12,12,0,0,1,101,83.77a11.77,11.77,0,0,1-6-1.59,11.46,11.46,0,0,1-4.36-4.62A14.85,14.85,0,0,1,89,70.44a14.55,14.55,0,0,1,1.62-7A11.33,11.33,0,0,1,95,58.87a12.41,12.41,0,0,1,12.12,0,11.54,11.54,0,0,1,4.39,4.58,14.5,14.5,0,0,1,1.62,7A14.68,14.68,0,0,1,111.5,77.56Z"/><path class="cls-1" d="M113.12,59.13V57a18.34,18.34,0,0,0-12.41-4.82h-.42a16.06,16.06,0,0,1,7.37,1.91A13.88,13.88,0,0,1,113.12,59.13Z"/><path class="cls-1" d="M83,70.44a20,20,0,0,1,2.21-9.58c.17-.31.34-.61.52-.91a18.38,18.38,0,0,0,1,22.58,17.54,17.54,0,0,1-1.56-2.47A20.46,20.46,0,0,1,83,70.44Z"/><path class="cls-1" d="M107.92,86.92a15.31,15.31,0,0,1-7.66,2h.45a18.34,18.34,0,0,0,12.41-4.82V81.69A13.8,13.8,0,0,1,107.92,86.92Z"/><path class="cls-2" d="M59.45,45.29,49.28,55.47a11.68,11.68,0,0,0-1.67,2.06,12.63,12.63,0,0,0-1.22,2.37,13.64,13.64,0,0,0-.71,2.56,15.69,15.69,0,0,0-.24,2.77V88.38H50.9V65.23A10,10,0,0,1,51,63.47a8.39,8.39,0,0,1,.44-1.6,7.08,7.08,0,0,1,.69-1.34,7.84,7.84,0,0,1,1-1.19L63.32,49.16Z"/><path class="cls-2" d="M73.65,31.89a8,8,0,0,0-1.72-2.57l-16-16a7.95,7.95,0,0,0-11.24,0L42.9,15.18,19.41,38.66l3.87,3.87L46.77,19.05l1.82-1.83a2.5,2.5,0,0,1,1.75-.72,2.64,2.64,0,0,1,.95.19,2.59,2.59,0,0,1,.8.53l16,16a2.59,2.59,0,0,1,.53.8,2.62,2.62,0,0,1,.18.95,2.44,2.44,0,0,1-.71,1.75l-1.83,1.82-.15.15-3.87,3.87,3.87,3.87,5.85-5.84A8,8,0,0,0,73.65,38a8.19,8.19,0,0,0,.6-3v-.1A8.19,8.19,0,0,0,73.65,31.89Z"/><path class="cls-2" d="M16.91,51.07a2.36,2.36,0,0,1-.19-.94v-.21h0a2.62,2.62,0,0,1,.14-.63h0l-4-4a7.87,7.87,0,0,0-1.63,4.62h0v.21a8,8,0,0,0,.6,3,7.67,7.67,0,0,0,1.71,2.56L30.78,73V65.21L17.45,51.87A2.46,2.46,0,0,1,16.91,51.07Z"/><path class="cls-3" d="M70,42.53l.15.15,1.83,1.83a7.9,7.9,0,0,1,1.72,2.57,8.16,8.16,0,0,1,.6,2.84h0v.21a8,8,0,0,1-.6,3,7.67,7.67,0,0,1-1.71,2.56L54.72,73V65.21L68.06,51.87a2.46,2.46,0,0,0,.54-.8,2.54,2.54,0,0,0,.19-.94v-.21h0a2.29,2.29,0,0,0-.18-.74,2.48,2.48,0,0,0-.53-.8l-1.83-1.83-4.17-4.17-16.6-16.6,3.87-3.87,16.6,16.6.15.15h0Zm-58.7-7.64V35a7.89,7.89,0,0,0,2.32,5.57L32.35,59.34A7.54,7.54,0,0,1,34,61.87a9.19,9.19,0,0,1,.44,1.6,11.11,11.11,0,0,1,.14,1.76V88.38h5.46V65.23a15.69,15.69,0,0,0-.23-2.77,13.66,13.66,0,0,0-.72-2.56,12.72,12.72,0,0,0-2.88-4.43L23.43,42.68l-.15-.15-3.87-3.87-.15-.15-1.82-1.82a2.49,2.49,0,0,1,0-3.5l16-16a2.38,2.38,0,0,1,.8-.53,2.45,2.45,0,0,1,1.89,0,2.38,2.38,0,0,1,.8.53l1.83,1.83.15.15,4-4-.15.15-.15-.15-1.83-1.83a7.9,7.9,0,0,0-2.57-1.72,8,8,0,0,0-6.09,0,7.9,7.9,0,0,0-2.57,1.72l-16,16a7.89,7.89,0,0,0-2.32,5.57Z"/><path class="cls-3" d="M70,42.53l.15.15,1.83,1.83a7.9,7.9,0,0,1,1.72,2.57,8.16,8.16,0,0,1,.6,2.84h0v.21a8,8,0,0,1-.6,3,7.67,7.67,0,0,1-1.71,2.56L54.72,73V65.21L68.06,51.87a2.46,2.46,0,0,0,.54-.8,2.54,2.54,0,0,0,.19-.94v-.21h0a2.29,2.29,0,0,0-.18-.74,2.48,2.48,0,0,0-.53-.8l-1.83-1.83-4.17-4.17-16.6-16.6,3.87-3.87,16.6,16.6.15.15h0Z"/></svg>